# xmcd
#
# Track frame offsets:
#	150
#	15861
#	22179
#	35877
#	48098
#	65039
#	75370
#	96846
#	108917
#	122461
#	135545
#	150565
#	163230
#	178676
#
# Disc length: 2567 seconds
#
# Revision: 0
# Processed by: cddbd v1.5.2PL0 Copyright (c) Steve Scherf et al.
# Submitted via: dBpowerAMP V4.0
#
DISCID=ab0a050e
DTITLE=Neko Case - Live From Austin TX
DYEAR=2006
DGENRE=Country
TTITLE0=Favorite
TTITLE1=Outro With Bees
TTITLE2=Behind The House
TTITLE3=Ghost Wiring
TTITLE4=Deep Red Bells
TTITLE5=Knock Loud
TTITLE6=Hex
TTITLE7=Maybe Sparrow
TTITLE8=Wayfaring Stranger
TTITLE9=Furnace Room Lullaby
TTITLE10=In California
TTITLE11=Buckets Of Rain
TTITLE12=Look For Me (I'll Be Around)
TTITLE13=Alone And Forsaken
EXTD=
EXTT0=
EXTT1=
EXTT2=
EXTT3=
EXTT4=
EXTT5=
EXTT6=
EXTT7=
EXTT8=
EXTT9=
EXTT10=
EXTT11=
EXTT12=
EXTT13=
PLAYORDER=
